<svg width="29" height="28" viewBox="0 0 29 28" fill="none" xmlns="http://www.w3.org/2000/svg">
    <g id="pacMan">
        <path d="M27.5534 8.9394C26.3826 5.91944 24.2009 3.39886 21.38 1.80714C18.5591 0.215419 15.2736 -0.348956 12.0832 0.210177C8.89288 0.76931 5.9951 2.41736 3.88364 4.87351C1.77218 7.32966 0.577673 10.4419 0.503656 13.6801C0.429639 16.9182 1.48069 20.0818 3.47772 22.6319C5.47475 25.1819 8.2942 26.9607 11.4557 27.665C14.6171 28.3693 17.925 27.9557 20.8157 26.4945C23.7063 25.0333 26.0009 22.6151 27.3085 19.6517L14.5 14L27.5534 8.9394Z"
              fill="#D3F85A"/>
        <circle cx="6.5" cy="14" r="2" fill="#090F1D"/>
    </g>

    <g id="doubleArrow">
        <path d="M6.90001 9.6L11.7 7.5C11.9 7.4 12.1 7.4 12.4 7.5L17.2 9.6C17.6 9.8 18 9.3 17.7 8.9L12.7 2.8C12.4 2.4 11.8 2.4 11.5 2.8L6.50001 8.9C6.10001 9.3 6.50001 9.8 6.90001 9.6Z"
              stroke="white" stroke-width="1.5" stroke-miterlimit="10" stroke-linecap="round"
              stroke-linejoin="round"/>
        <path d="M6.90001 15.4L11.7 17.5C11.9 17.6 12.1 17.6 12.4 17.5L17.2 15.4C17.6 15.2 18 15.7 17.7 16.1L12.7 22.2C12.4 22.6 11.8 22.6 11.5 22.2L6.50001 16.1C6.10001 15.7 6.50001 15.2 6.90001 15.4Z"
              stroke="white" stroke-width="1.5" stroke-miterlimit="10" stroke-linecap="round"
              stroke-linejoin="round"/>
        <path d="M12 9.8999L6.8 12.4999L12 15.0999L17.2 12.4999L12 9.8999Z" stroke="white" stroke-width="1.5"
              stroke-miterlimit="10" stroke-linecap="round" stroke-linejoin="round"/>
    </g>

    <g id="clock">
        <path d="M22 12.5C22 18.02 17.52 22.5 12 22.5C6.48 22.5 2 18.02 2 12.5C2 6.98 6.48 2.5 12 2.5C17.52 2.5 22 6.98 22 12.5Z"
              stroke="white" stroke-width="1.5" stroke-linecap="round" stroke-linejoin="round"/>
        <path d="M15.71 15.68L12.61 13.83C12.07 13.51 11.63 12.74 11.63 12.11V8.01001" stroke="white" stroke-width="1.5"
              stroke-linecap="round" stroke-linejoin="round"/>
    </g>

    <g id="facebook">
        <path d="M21.2273 0H3.77273C1.96525 0 0.5 1.46525 0.5 3.27273V20.7273C0.5 22.5347 1.96525 24 3.77273 24H21.2273C23.0347 24 24.5 22.5347 24.5 20.7273V3.27273C24.5 1.46525 23.0347 0 21.2273 0Z"
              fill="#D3F85A"/>
        <path d="M16.3018 10.5791L16.0605 12.6695C16.0505 12.7649 16.0058 12.8533 15.9349 12.9179C15.864 12.9825 15.7718 13.0189 15.6759 13.02H13.4941L13.4832 19.2177C13.4839 19.2912 13.4557 19.362 13.4047 19.4148C13.3537 19.4676 13.2839 19.4982 13.2105 19.5H11C10.9633 19.5 10.9269 19.4926 10.8931 19.4782C10.8592 19.4639 10.8287 19.4428 10.8032 19.4163C10.7777 19.3898 10.7579 19.3584 10.7448 19.3241C10.7318 19.2897 10.7258 19.2531 10.7273 19.2164V13.02H9.09093C9.03953 13.0195 8.98875 13.0088 8.94147 12.9887C8.89419 12.9685 8.85135 12.9392 8.81538 12.9025C8.77942 12.8658 8.75105 12.8223 8.73187 12.7746C8.7127 12.7269 8.70311 12.6759 8.70365 12.6245L8.69547 10.5341C8.69475 10.4825 8.7042 10.4313 8.72327 10.3834C8.74234 10.3355 8.77067 10.2918 8.80663 10.2548C8.84259 10.2178 8.88549 10.1883 8.93287 10.1679C8.98024 10.1475 9.03117 10.1366 9.08275 10.1359H10.7273V8.11773C10.7273 5.775 12.1182 4.5 14.1582 4.5H15.83C15.8817 4.50053 15.9328 4.51127 15.9803 4.53158C16.0279 4.5519 16.0709 4.5814 16.107 4.6184C16.1431 4.65539 16.1716 4.69915 16.1907 4.74716C16.2099 4.79517 16.2194 4.84649 16.2187 4.89818V6.65727C16.2194 6.70896 16.2099 6.76028 16.1907 6.8083C16.1716 6.85631 16.1431 6.90007 16.107 6.93706C16.0709 6.97405 16.0279 7.00355 15.9803 7.02387C15.9328 7.04419 15.8817 7.05492 15.83 7.05545H14.8046C13.6959 7.05545 13.4805 7.60091 13.4805 8.38909V10.1359H15.9173C15.9727 10.1366 16.0274 10.149 16.0776 10.1723C16.1279 10.1957 16.1727 10.2294 16.209 10.2712C16.2453 10.3131 16.2724 10.3622 16.2884 10.4152C16.3044 10.4683 16.309 10.5241 16.3018 10.5791Z"
              fill="#090F1D"/>
    </g>

    <g id="telegram">
        <path d="M21.2273 0H3.77273C1.96525 0 0.5 1.46525 0.5 3.27273V20.7273C0.5 22.5347 1.96525 24 3.77273 24H21.2273C23.0347 24 24.5 22.5347 24.5 20.7273V3.27273C24.5 1.46525 23.0347 0 21.2273 0Z"
              fill="white"/>
        <path d="M19.0373 6.20455L18.7891 6.29455L5.31912 11.1477C5.22366 11.1772 5.1407 11.2376 5.08323 11.3193C5.02576 11.4011 4.99704 11.4996 5.00156 11.5994C5.00608 11.6992 5.0436 11.7947 5.10822 11.8709C5.17285 11.9471 5.26093 11.9997 5.35866 12.0205L8.84548 12.975L9.49594 14.8841L10.1464 16.7932C10.1838 16.8868 10.2434 16.9698 10.3201 17.0351C10.3969 17.1004 10.4884 17.146 10.5868 17.1679C10.6851 17.1898 10.7874 17.1874 10.8846 17.1608C10.9818 17.1342 11.071 17.0843 11.1446 17.0155L12.9459 15.3136L16.4832 17.7123C16.9155 18.0068 17.5318 17.7886 17.6423 17.3032L19.985 6.95182C20.0996 6.43909 19.5596 6.01773 19.0373 6.20455ZM17.3178 8.50227L11.2318 13.4768L10.9455 13.7114C10.8826 13.7612 10.8415 13.8336 10.8309 13.9132L10.7668 14.4423L10.5909 15.9286C10.5924 15.9467 10.5866 15.9646 10.5748 15.9784C10.5631 15.9923 10.5463 16.0008 10.5282 16.0023C10.5101 16.0037 10.4922 15.9979 10.4784 15.9862C10.4646 15.9744 10.456 15.9576 10.4546 15.9395L9.95957 14.4545L9.44821 12.9341C9.42658 12.8657 9.42945 12.792 9.45634 12.7255C9.48322 12.6591 9.53242 12.6041 9.59548 12.57L15.9282 8.94L17.12 8.25818C17.2932 8.15727 17.4705 8.37682 17.3178 8.50227Z"
              fill="#090F1D"/>
    </g>

    <g id="twitter">
        <path d="M21.2273 0H3.77273C1.96525 0 0.5 1.46525 0.5 3.27273V20.7273C0.5 22.5347 1.96525 24 3.77273 24H21.2273C23.0347 24 24.5 22.5347 24.5 20.7273V3.27273C24.5 1.46525 23.0347 0 21.2273 0Z"
              fill="white"/>
        <path d="M19.9714 7.46047C19.6154 7.9923 19.182 8.468 18.6855 8.87183C18.6211 8.92305 18.5691 8.98817 18.5335 9.06232C18.4978 9.13647 18.4794 9.21773 18.4796 9.30001V9.35047C18.4739 10.4221 18.2772 11.4842 17.8987 12.4868C17.5087 13.5377 16.9296 14.5083 16.19 15.3505C15.2006 16.4784 13.9261 17.3196 12.5 17.7859C11.5603 18.0909 10.5779 18.2437 9.59002 18.2386C8.02545 18.237 6.48908 17.8221 5.13639 17.0359C5.08795 17.0084 5.04986 16.9658 5.02794 16.9145C5.00603 16.8633 5.00149 16.8063 5.01502 16.7523C5.02874 16.6988 5.05996 16.6515 5.10371 16.6179C5.14746 16.5843 5.20122 16.5663 5.25639 16.5668H5.63002C6.81924 16.5666 7.98126 16.211 8.96684 15.5455C8.37933 15.4494 7.8296 15.1935 7.37788 14.8058C6.92616 14.4181 6.58989 13.9135 6.40593 13.3473C6.39691 13.3194 6.3953 13.2896 6.40126 13.2609C6.40723 13.2321 6.42056 13.2055 6.43996 13.1835C6.45935 13.1615 6.48414 13.1449 6.51189 13.1353C6.53963 13.1258 6.56938 13.1237 6.5982 13.1291C6.77802 13.1633 6.96063 13.1806 7.14366 13.1809H7.21184C6.6424 12.9193 6.16097 12.4982 5.82579 11.9687C5.49061 11.4392 5.31604 10.8239 5.3232 10.1973C5.32359 10.1679 5.33158 10.1391 5.34639 10.1137C5.36119 10.0883 5.38232 10.0672 5.40771 10.0523C5.4331 10.0375 5.46189 10.0295 5.49129 10.0291C5.52068 10.0287 5.54969 10.0359 5.57548 10.05C5.80652 10.179 6.05433 10.2754 6.31184 10.3364C5.80191 9.83224 5.47371 9.17313 5.3787 8.46239C5.28369 7.75165 5.42724 7.02948 5.78684 6.4091C5.80064 6.38624 5.81965 6.36697 5.84232 6.35287C5.865 6.33877 5.89069 6.33024 5.91729 6.32798C5.9439 6.32572 5.97066 6.32979 5.99539 6.33986C6.02012 6.34993 6.04211 6.36572 6.05957 6.38592C6.77375 7.26878 7.65803 7.99916 8.6599 8.53371C9.66178 9.06826 10.7608 9.39609 11.8918 9.49774H11.9041C11.9209 9.49719 11.9373 9.49329 11.9526 9.48626C11.9678 9.47923 11.9815 9.46923 11.9927 9.45683C12.0036 9.44443 12.0118 9.4299 12.0167 9.41416C12.0216 9.39843 12.0232 9.38185 12.0214 9.36547C11.9792 8.96945 12.005 8.56913 12.0978 8.18183C12.179 7.84276 12.3174 7.51998 12.5068 7.22728C12.9045 6.60277 13.5102 6.13905 14.2168 5.91819C14.5483 5.81427 14.8936 5.76094 15.2409 5.76001C16.0287 5.75923 16.7896 6.04633 17.3805 6.56728C17.4558 6.63419 17.5525 6.67193 17.6532 6.67365C17.6864 6.6731 17.7193 6.66852 17.7514 6.66001C18.3069 6.51947 18.8392 6.29948 19.3318 6.00683C19.3615 5.9897 19.3956 5.9819 19.4298 5.98444C19.4639 5.98699 19.4965 5.99977 19.5233 6.02111C19.5501 6.04245 19.5698 6.07137 19.58 6.10409C19.5901 6.13681 19.5901 6.17182 19.58 6.20456C19.4147 6.72067 19.1221 7.18683 18.7291 7.56001C19.0836 7.47535 19.4295 7.3585 19.7627 7.21092C19.7963 7.19595 19.8339 7.19235 19.8697 7.20065C19.9056 7.20895 19.9377 7.2287 19.9613 7.25692C19.9849 7.28513 19.9986 7.32027 20.0005 7.357C20.0023 7.39373 19.9921 7.43006 19.9714 7.46047Z"
              fill="#090F1D"/>
    </g>

    <g id="linkedin">
        <path d="M21.2273 0H3.77273C1.96525 0 0.5 1.46525 0.5 3.27273V20.7273C0.5 22.5347 1.96525 24 3.77273 24H21.2273C23.0347 24 24.5 22.5347 24.5 20.7273V3.27273C24.5 1.46525 23.0347 0 21.2273 0Z"
              fill="white"/>
        <path d="M9.14548 6.54545C9.14548 6.95001 9.02551 7.34547 8.80075 7.68185C8.576 8.01822 8.25654 8.28039 7.88278 8.43521C7.50902 8.59002 7.09775 8.63053 6.70097 8.55161C6.30419 8.47268 5.93973 8.27787 5.65367 7.99181C5.3676 7.70575 5.17279 7.34128 5.09387 6.9445C5.01494 6.54772 5.05545 6.13645 5.21027 5.76269C5.36508 5.38894 5.62725 5.06948 5.96363 4.84472C6.3 4.61996 6.69547 4.5 7.10002 4.5C7.64251 4.5 8.16278 4.7155 8.54638 5.0991C8.92997 5.4827 9.14548 6.00297 9.14548 6.54545ZM8.68184 9.95455V18.9914C8.6822 19.058 8.66938 19.1241 8.64411 19.1858C8.61885 19.2475 8.58164 19.3036 8.53463 19.3509C8.48762 19.3981 8.43172 19.4356 8.37017 19.4612C8.30861 19.4868 8.2426 19.5 8.17593 19.5H6.02002C5.95335 19.5002 5.88731 19.4872 5.82568 19.4618C5.76406 19.4363 5.70806 19.399 5.66092 19.3518C5.61378 19.3047 5.57642 19.2487 5.551 19.1871C5.52557 19.1254 5.51257 19.0594 5.51275 18.9927V9.95455C5.51275 9.82001 5.56619 9.69098 5.66133 9.59585C5.75646 9.50072 5.88548 9.44727 6.02002 9.44727H8.17593C8.31023 9.44763 8.43891 9.50124 8.53375 9.59633C8.62858 9.69142 8.68184 9.82024 8.68184 9.95455ZM19.9509 14.6591V19.0336C19.9511 19.0949 19.9392 19.1557 19.9158 19.2123C19.8924 19.269 19.8581 19.3205 19.8147 19.3638C19.7714 19.4071 19.7199 19.4415 19.6632 19.4649C19.6066 19.4882 19.5459 19.5002 19.4846 19.5H17.1664C17.1051 19.5002 17.0444 19.4882 16.9877 19.4649C16.931 19.4415 16.8796 19.4071 16.8362 19.3638C16.7929 19.3205 16.7585 19.269 16.7352 19.2123C16.7118 19.1557 16.6998 19.0949 16.7 19.0336V14.7941C16.7 14.1614 16.8855 12.0232 15.0459 12.0232C13.6209 12.0232 13.3305 13.4864 13.2732 14.1436V19.0336C13.2732 19.1562 13.225 19.2738 13.139 19.361C13.053 19.4483 12.9362 19.4982 12.8137 19.5H10.5746C10.5134 19.5 10.4528 19.4879 10.3963 19.4645C10.3398 19.441 10.2885 19.4066 10.2453 19.3633C10.2021 19.32 10.1679 19.2686 10.1446 19.212C10.1213 19.1554 10.1094 19.0948 10.1096 19.0336V9.915C10.1094 9.85382 10.1213 9.79321 10.1446 9.73663C10.1679 9.68006 10.2021 9.62864 10.2453 9.58531C10.2885 9.54199 10.3398 9.50762 10.3963 9.48416C10.4528 9.46071 10.5134 9.44864 10.5746 9.44864H12.8137C12.9373 9.44864 13.056 9.49777 13.1434 9.58523C13.2309 9.67269 13.28 9.79131 13.28 9.915V10.7032C13.8091 9.90955 14.5932 9.29727 16.2664 9.29727C19.9727 9.29727 19.9509 12.7582 19.9509 14.6591Z"
              fill="#090F1D"/>
    </g>

    <g id="group">
        <path d="M10.7624 86.2203L11.7193 86.4876L11.7454 84.2637L10.7827 84.4925C10.2584 84.625 9.70209 84.7625 9.11371 84.9049C8.52546 85.0367 7.95854 85.1687 7.41295 85.301L7.4122 85.365C7.96533 85.4995 8.53439 85.6395 9.1194 85.7851C9.69386 85.9198 10.2415 86.0649 10.7624 86.2203ZM15.9978 90.058L5.60476 86.6719L5.63796 83.8401L16.1075 80.6986L16.0782 83.1945L13.5909 83.8053L13.5536 86.9891L16.0259 87.6581L15.9978 90.058Z"
              fill="white"/>
        <path d="M16.9531 74.3425L9.17522 72.7663L9.55654 70.8846L10.9526 71.0042L10.9653 70.9415C10.4998 70.5533 10.1818 70.1352 10.0114 69.6871C9.83058 69.2369 9.7804 68.8131 9.8609 68.4159C9.90539 68.1963 9.95815 68.0166 10.0192 67.8766C10.0697 67.7344 10.1317 67.6164 10.2052 67.5224L12.1205 68.3024C12.0511 68.4298 11.9922 68.5593 11.9438 68.691C11.8974 68.8122 11.8573 68.9565 11.8234 69.1237C11.7641 69.4164 11.8114 69.7471 11.9652 70.1157C12.1108 70.4717 12.4237 70.8072 12.904 71.1222L17.4202 72.0373L16.9531 74.3425Z"
              fill="white"/>
        <path d="M21.095 60.2577C20.7427 61.1736 20.2261 61.7291 19.5453 61.9244C18.8683 62.1097 18.1017 62.0376 17.2455 61.7083L14.244 60.5536L13.8533 61.5691L12.2256 60.9429L12.5726 59.7735L10.6991 58.7614L11.3999 56.9396L13.3711 57.6978L14.0547 55.9208L15.772 56.5814L15.0884 58.3585L18.0601 59.5016C18.4782 59.6625 18.8144 59.6947 19.0687 59.5982C19.3168 59.4879 19.4964 59.2884 19.6075 58.9997C19.6534 58.8802 19.6845 58.755 19.7006 58.6241C19.7205 58.4832 19.7297 58.3553 19.7281 58.2404L21.4581 58.5116C21.4451 58.7237 21.4148 58.9807 21.3673 59.2824C21.3237 59.5742 21.2329 59.8993 21.095 60.2577Z"
              fill="white"/>
        <path d="M25.0651 51.2443L17.3299 48.5829L18.603 46.6243L22.107 47.9859C22.4728 48.1473 22.8312 48.3103 23.1823 48.4748C23.5333 48.6394 23.8962 48.8053 24.2709 48.9725L24.3058 48.9188C24.0066 48.6353 23.709 48.3592 23.413 48.0905C23.1228 47.8128 22.8473 47.532 22.5866 47.248L19.9807 44.5047L21.0881 42.801L24.6619 44.0552C25.0451 44.1898 25.418 44.3304 25.7807 44.4771C26.1492 44.6148 26.5237 44.7628 26.9042 44.9211L26.9391 44.8674C26.6399 44.5839 26.341 44.3197 26.0423 44.0746C25.7494 43.8206 25.4578 43.5548 25.1676 43.2771L22.4919 40.6411L23.6778 38.8166L29.2941 44.7379L27.7944 47.0454L24.7458 45.9226C24.392 45.7817 24.0383 45.6409 23.6846 45.5C23.3367 45.3502 22.9635 45.1904 22.5651 45.0205L22.5302 45.0741C22.8473 45.3692 23.1449 45.6454 23.423 45.9025C23.707 46.1506 23.9851 46.4078 24.2575 46.6738L26.53 48.9906L25.0651 51.2443Z"
              fill="white"/>
        <path d="M37.2683 35.9619C36.7865 36.4304 36.22 36.7581 35.5686 36.9451C34.9175 37.117 34.2463 37.1076 33.555 36.9169C32.8563 36.7185 32.202 36.3058 31.5923 35.6787C30.9751 35.0439 30.5808 34.3784 30.4096 33.682C30.2383 32.9856 30.2514 32.3182 30.449 31.6798C30.6467 31.0263 30.9865 30.4654 31.4683 29.9969C31.95 29.5284 32.5165 29.2082 33.1676 29.0363C33.8113 28.8568 34.4788 28.8624 35.1701 29.0531C35.8614 29.2438 36.5157 29.6566 37.1329 30.2913C37.7426 30.9184 38.1368 31.584 38.3155 32.288C38.4868 32.9844 38.4774 33.6556 38.2873 34.3016C38.0898 34.94 37.7501 35.4935 37.2683 35.9619ZM35.941 34.5969C36.2851 34.2622 36.4039 33.8641 36.2972 33.4025C36.1831 32.9332 35.8881 32.4538 35.4122 31.9644C34.9288 31.4673 34.4579 31.159 33.9995 31.0394C33.541 30.9198 33.1397 31.0273 32.7956 31.362C32.4438 31.704 32.3212 32.1059 32.4279 32.5675C32.5422 33.0217 32.8411 33.4973 33.3244 33.9944C33.8003 34.4839 34.2674 34.7959 34.7256 34.9306C35.1841 35.0501 35.5892 34.9389 35.941 34.5969Z"
              fill="white"/>
        <path d="M44.9349 29.2141L40.5188 22.6204L42.114 21.5519L43.0216 22.6195L43.0747 22.5839C43.0172 21.9805 43.0857 21.4596 43.28 21.0214C43.4684 20.5743 43.7309 20.2379 44.0677 20.0124C44.2538 19.8877 44.4178 19.7971 44.5597 19.7406C44.6957 19.6752 44.8228 19.635 44.9411 19.62L45.7528 21.522C45.6138 21.5637 45.4808 21.6143 45.3537 21.6737C45.2355 21.7272 45.1055 21.8015 44.9637 21.8964C44.7155 22.0626 44.5164 22.3308 44.3663 22.7009C44.2192 23.0562 44.2054 23.5148 44.3249 24.0767L46.8891 27.9053L44.9349 29.2141Z"
              fill="white"/>
        <path d="M54.8824 23.1757L50.4229 12.8843L52.5223 11.9746L55.0796 17.8763L55.1384 17.8509L56.19 13.96L58.539 12.9421L57.2823 17.044L61.8852 20.1412L59.5509 21.1527L56.6789 19.0317L56.2056 20.4749L56.9817 22.2659L54.8824 23.1757Z"
              fill="white"/>
        <path d="M70.982 17.8365C70.3252 17.9791 69.6711 17.9573 69.0195 17.7713C68.376 17.5726 67.8115 17.2094 67.3258 16.6817C66.8379 16.1436 66.5012 15.4472 66.3157 14.5924C66.128 13.7272 66.1457 12.9539 66.3689 12.2723C66.5921 11.5908 66.9564 11.0315 67.4618 10.5944C67.9755 10.1445 68.5606 9.84834 69.2173 9.70581C69.874 9.56329 70.5241 9.59138 71.1676 9.7901C71.8088 9.97839 72.3722 10.3364 72.8578 10.864C73.3434 11.3917 73.6801 12.0881 73.8679 12.9533C74.0534 13.8081 74.0357 14.5815 73.8148 15.2734C73.5916 15.9549 73.2284 16.5194 72.7252 16.967C72.2197 17.4042 71.6387 17.694 70.982 17.8365ZM70.5781 15.9758C71.0472 15.874 71.3586 15.5991 71.5124 15.1509C71.6639 14.6923 71.6673 14.1295 71.5225 13.4624C71.3755 12.7848 71.1391 12.274 70.8134 11.9299C70.4876 11.5858 70.0902 11.4647 69.6212 11.5665C69.1417 11.6706 68.825 11.9467 68.6712 12.3948C68.5279 12.8407 68.5297 13.4024 68.6768 14.08C68.8216 14.7471 69.0527 15.2591 69.3703 15.6158C69.696 15.9599 70.0986 16.0799 70.5781 15.9758Z"
              fill="white"/>
        <path d="M81.4722 16.1673L81.2318 10.0761L80.1766 10.1177L80.1079 8.37508L81.1599 8.2535L81.1428 7.82183C81.1205 7.25694 81.1963 6.74155 81.37 6.27567C81.5438 5.80979 81.8384 5.42987 82.2538 5.13593C82.6692 4.84198 83.2339 4.68092 83.948 4.65273C84.2785 4.63969 84.5835 4.65968 84.8631 4.71269C85.1428 4.76571 85.3691 4.82082 85.5422 4.87804L85.1787 6.62173C85.038 6.57391 84.898 6.54208 84.7586 6.52623C84.6187 6.49972 84.4849 6.48899 84.357 6.49404C84.0692 6.5054 83.849 6.60483 83.6962 6.79233C83.5431 6.96917 83.4745 7.26011 83.4905 7.66512L83.5094 8.14475L84.9323 8.08859L85.0049 9.92716L83.582 9.98332L83.8224 16.0746L81.4722 16.1673Z"
              fill="white"/>
        <path d="M94.7576 16.8229C93.7835 16.7046 93.1187 16.3391 92.7633 15.7264C92.4185 15.115 92.3014 14.354 92.412 13.4434L92.7998 10.2509L91.7198 10.1197L91.9301 8.38838L93.1488 8.43971L93.6735 6.37592L95.6112 6.61131L95.3566 8.7079L97.2467 8.93749L97.0248 10.7641L95.1347 10.5345L94.7507 13.6952C94.6967 14.14 94.7475 14.4739 94.9031 14.6969C95.0705 14.9107 95.3078 15.0362 95.6148 15.0735C95.7419 15.0889 95.8709 15.0885 96.0018 15.0721C96.1433 15.0571 96.2696 15.0348 96.3807 15.0053L96.5395 16.7492C96.3306 16.7883 96.0741 16.8216 95.7699 16.8491C95.4762 16.8779 95.1388 16.8692 94.7576 16.8229Z"
              fill="white"/>
        <path d="M103.219 18.1514L106.631 7.46691L108.872 8.18237L108.035 10.804L107.495 12.1264C107.86 11.9632 108.265 11.835 108.709 11.7416C109.167 11.6414 109.65 11.6724 110.158 11.8346C110.981 12.0974 111.488 12.5616 111.678 13.2271C111.882 13.8857 111.833 14.6875 111.531 15.6325L110.032 20.327L107.792 19.6115L109.198 15.2066C109.374 14.6579 109.418 14.2576 109.33 14.0057C109.253 13.7571 109.051 13.5809 108.726 13.477C108.442 13.3862 108.177 13.3743 107.931 13.4415C107.689 13.4986 107.409 13.605 107.09 13.7609L105.46 18.8669L103.219 18.1514Z"
              fill="white"/>
        <path d="M119.882 25.1796C119.222 24.8091 118.708 24.3309 118.339 23.745C117.971 23.1592 117.784 22.5104 117.78 21.7986C117.776 21.0868 117.987 20.3495 118.415 19.5867C118.838 18.8331 119.354 18.2727 119.964 17.9053C120.583 17.5432 121.224 17.3589 121.889 17.3523C122.558 17.3364 123.167 17.4824 123.716 17.7904C124.376 18.1609 124.837 18.615 125.098 19.1528C125.374 19.6865 125.477 20.2645 125.409 20.8869C125.356 21.5052 125.152 22.1306 124.797 22.7632C124.698 22.9399 124.59 23.1115 124.472 23.2778C124.359 23.4348 124.27 23.55 124.205 23.6233L120.06 21.2983C119.871 21.8528 119.872 22.3424 120.062 22.7669C120.257 23.1821 120.582 23.5176 121.038 23.7733C121.531 24.0499 122.115 24.1756 122.79 24.1504L122.777 25.7759C122.288 25.8195 121.785 25.7884 121.27 25.6827C120.754 25.5769 120.292 25.4092 119.882 25.1796ZM120.806 19.9369L123.303 21.3381C123.517 20.9567 123.599 20.5929 123.549 20.2466C123.513 19.8963 123.29 19.6063 122.881 19.3767C122.565 19.1993 122.218 19.1517 121.842 19.2341C121.471 19.3071 121.125 19.5414 120.806 19.9369Z"
              fill="white"/>
        <path d="M129.437 31.252L133.282 24.0318L135.016 25.597L133.12 28.8433C132.903 29.1792 132.686 29.5075 132.468 29.8282C132.25 30.149 132.029 30.4813 131.805 30.8251L131.853 30.8679C132.18 30.6171 132.499 30.3666 132.811 30.1166C133.131 29.8736 133.452 29.6458 133.773 29.433L136.892 27.291L138.401 28.6526L136.6 31.9846C136.407 32.3419 136.209 32.6881 136.007 33.0231C135.813 33.3654 135.608 33.7119 135.392 34.0628L135.44 34.1057C135.767 33.8549 136.075 33.6012 136.364 33.3448C136.66 33.0955 136.969 32.8494 137.289 32.6064L140.313 30.3787L141.928 31.8368L135.197 36.4518L133.154 34.6078L134.743 31.7737C134.937 31.4466 135.132 31.1194 135.327 30.7923C135.529 30.4722 135.746 30.1289 135.976 29.7621L135.929 29.7192C135.588 29.9859 135.268 30.2364 134.97 30.4706C134.681 30.712 134.383 30.9462 134.077 31.1733L131.432 33.0532L129.437 31.252Z"
              fill="white"/>
        <path d="M142.692 45.8249C142.256 45.2056 141.999 44.5522 141.919 43.8647C141.839 43.1772 141.951 42.5115 142.254 41.8675C142.558 41.2235 143.067 40.6498 143.782 40.1463C144.488 39.6489 145.196 39.366 145.904 39.2977C146.619 39.2381 147.277 39.3486 147.879 39.6292C148.49 39.9037 148.977 40.2983 149.339 40.8129C149.775 41.4321 149.994 42.0406 149.998 42.6383C150.016 43.2386 149.86 43.8048 149.531 44.337C149.216 44.8718 148.762 45.3479 148.169 45.7655C148.003 45.8822 147.831 45.9901 147.653 46.0893C147.484 46.1824 147.354 46.2479 147.263 46.2857L144.527 42.4001C144.118 42.8189 143.907 43.2608 143.895 43.7257C143.892 44.1845 144.041 44.6275 144.342 45.0549C144.667 45.5172 145.14 45.8825 145.759 46.1508L145.046 47.6116C144.586 47.4399 144.146 47.1951 143.727 46.8772C143.307 46.5594 142.962 46.2086 142.692 45.8249ZM145.787 41.4936L147.436 43.8354C147.793 43.5836 148.024 43.2907 148.128 42.9566C148.247 42.6251 148.171 42.2675 147.901 41.8837C147.692 41.5872 147.4 41.3948 147.025 41.3067C146.659 41.2124 146.246 41.2747 145.787 41.4936Z"
              fill="white"/>
        <path d="M149.361 57.6213C149.053 56.9293 148.927 56.2383 148.982 55.5484C149.037 54.8585 149.276 54.2271 149.699 53.6542C150.121 53.0812 150.732 52.6171 151.531 52.2619C152.321 51.911 153.07 51.7707 153.778 51.8411C154.49 51.9212 155.115 52.1573 155.651 52.5493C156.197 52.937 156.598 53.4184 156.853 53.9935C157.161 54.6856 157.258 55.3251 157.146 55.9121C157.047 56.5045 156.784 57.0298 156.358 57.488C155.945 57.9515 155.407 58.3306 154.745 58.6252C154.559 58.7075 154.37 58.7801 154.176 58.8429C153.992 58.9014 153.852 58.9404 153.755 58.9599L151.825 54.6175C151.342 54.9489 151.05 55.3415 150.948 55.7953C150.856 56.2448 150.916 56.7083 151.128 57.1859C151.358 57.7025 151.75 58.1525 152.306 58.5359L151.323 59.8307C150.905 59.5729 150.521 59.2475 150.171 58.8543C149.822 58.4612 149.551 58.0502 149.361 57.6213ZM153.237 53.9725L154.4 56.5896C154.8 56.412 155.083 56.1694 155.25 55.8618C155.431 55.5596 155.426 55.1941 155.235 54.7652C155.088 54.4338 154.839 54.1885 154.488 54.0293C154.147 53.8658 153.73 53.8468 153.237 53.9725Z"
              fill="white"/>
        <path d="M153.016 66.9802L163.954 64.4991L164.46 66.7304L158.188 68.1533L158.202 68.2157L161.832 69.9681L162.398 72.4647L158.599 70.4718L154.705 74.4232L154.142 71.9422L156.757 69.5115L155.426 68.7797L153.522 69.2116L153.016 66.9802Z"
              fill="white"/>
        <path d="M160.745 82.8916L159.78 82.6558L159.827 84.8793L160.781 84.6193C161.301 84.4697 161.852 84.3141 162.436 84.1526C163.02 84.0017 163.582 83.8512 164.123 83.7012L164.121 83.6372C163.564 83.5208 162.991 83.3995 162.401 83.2731C161.823 83.1572 161.271 83.03 160.745 82.8916ZM155.387 79.2269L165.885 82.272L165.945 85.1034L155.583 88.5848L155.531 86.0894L157.997 85.3977L157.93 82.2144L155.438 81.6263L155.387 79.2269Z"
              fill="white"/>
        <path d="M154.945 94.9652L162.77 96.2867L162.451 98.1799L161.052 98.1058L161.041 98.1689C161.519 98.5417 161.85 98.9493 162.035 99.3916C162.231 99.8357 162.295 100.258 162.227 100.657C162.19 100.878 162.143 101.059 162.087 101.201C162.041 101.345 161.983 101.465 161.912 101.561L159.972 100.844C160.038 100.715 160.092 100.583 160.136 100.45C160.179 100.328 160.214 100.182 160.243 100.014C160.292 99.7193 160.234 99.3903 160.068 99.027C159.911 98.6759 159.588 98.3508 159.097 98.0517L154.554 97.2843L154.945 94.9652Z"
              fill="white"/>
        <path d="M151.265 109.178C151.587 108.251 152.086 107.679 152.76 107.461C153.43 107.254 154.199 107.301 155.065 107.602L158.103 108.658L158.46 107.631L160.108 108.203L159.799 109.383L161.704 110.334L161.063 112.178L159.069 111.484L158.443 113.282L156.705 112.678L157.331 110.88L154.323 109.834C153.9 109.687 153.563 109.666 153.312 109.771C153.068 109.889 152.895 110.094 152.793 110.386C152.751 110.507 152.724 110.633 152.712 110.765C152.697 110.906 152.692 111.034 152.697 111.149L150.959 110.935C150.965 110.722 150.987 110.464 151.025 110.161C151.059 109.868 151.139 109.54 151.265 109.178Z"
              fill="white"/>
        <path d="M147.591 118.316L155.409 120.723L154.201 122.722L150.654 121.476C150.283 121.327 149.92 121.175 149.564 121.022C149.207 120.869 148.839 120.715 148.459 120.56L148.426 120.615C148.734 120.889 149.041 121.155 149.345 121.414C149.645 121.682 149.929 121.954 150.199 122.229L152.893 124.886L151.842 126.625L148.229 125.488C147.842 125.366 147.464 125.238 147.097 125.103C146.724 124.977 146.345 124.841 145.96 124.696L145.926 124.75C146.235 125.024 146.542 125.278 146.849 125.514C147.15 125.758 147.45 126.014 147.749 126.282L150.509 128.829L149.383 130.692L143.577 124.957L145.001 122.602L148.084 123.624C148.442 123.754 148.8 123.883 149.159 124.012C149.511 124.15 149.889 124.298 150.293 124.455L150.326 124.4C150 124.115 149.693 123.849 149.407 123.601C149.115 123.362 148.829 123.115 148.548 122.857L146.201 120.616L147.591 118.316Z"
              fill="white"/>
        <path d="M135.893 133.988C136.36 133.504 136.915 133.158 137.56 132.95C138.205 132.757 138.876 132.744 139.573 132.913C140.278 133.088 140.946 133.479 141.576 134.086C142.213 134.7 142.629 135.353 142.823 136.043C143.017 136.733 143.025 137.401 142.849 138.045C142.672 138.705 142.351 139.277 141.885 139.761C141.419 140.245 140.863 140.583 140.218 140.776C139.58 140.977 138.913 140.993 138.216 140.825C137.519 140.657 136.851 140.266 136.214 139.651C135.584 139.044 135.168 138.392 134.967 137.694C134.773 137.004 134.76 136.333 134.929 135.681C135.106 135.036 135.427 134.472 135.893 133.988ZM137.264 135.309C136.931 135.655 136.826 136.057 136.947 136.515C137.077 136.98 137.387 137.449 137.879 137.923C138.378 138.404 138.859 138.697 139.321 138.801C139.783 138.906 140.181 138.785 140.514 138.44C140.854 138.086 140.964 137.681 140.842 137.223C140.713 136.773 140.399 136.307 139.899 135.826C139.408 135.352 138.931 135.056 138.468 134.936C138.006 134.831 137.605 134.956 137.264 135.309Z"
              fill="white"/>
        <path d="M128.451 140.983L133.08 147.429L131.52 148.549L130.578 147.511L130.526 147.549C130.604 148.15 130.552 148.673 130.372 149.117C130.199 149.57 129.947 149.915 129.618 150.151C129.436 150.282 129.275 150.378 129.135 150.439C129.001 150.509 128.876 150.553 128.758 150.572L127.884 148.697C128.022 148.651 128.153 148.596 128.278 148.533C128.395 148.475 128.522 148.397 128.661 148.297C128.904 148.123 129.094 147.849 129.232 147.474C129.367 147.114 129.366 146.655 129.228 146.098L126.54 142.355L128.451 140.983Z"
              fill="white"/>
        <path d="M118.706 147.342L123.499 157.483L121.43 158.46L118.682 152.645L118.624 152.673L117.7 156.596L115.385 157.69L116.507 153.549L111.806 150.604L114.106 149.517L117.046 151.543L117.471 150.085L116.637 148.32L118.706 147.342Z"
              fill="white"/>
        <path d="M102.789 153.204C103.441 153.04 104.095 153.041 104.753 153.205C105.402 153.383 105.978 153.727 106.481 154.239C106.986 154.761 107.345 155.446 107.559 156.294C107.775 157.153 107.782 157.926 107.581 158.615C107.38 159.303 107.035 159.874 106.544 160.328C106.045 160.794 105.47 161.109 104.818 161.273C104.166 161.437 103.516 161.43 102.866 161.252C102.219 161.085 101.644 160.746 101.142 160.234C100.639 159.723 100.28 159.037 100.064 158.179C99.8507 157.331 99.8432 156.557 100.041 155.858C100.242 155.17 100.587 154.594 101.075 154.13C101.566 153.677 102.137 153.368 102.789 153.204ZM103.253 155.051C102.788 155.168 102.486 155.453 102.347 155.906C102.21 156.369 102.225 156.932 102.392 157.594C102.561 158.266 102.814 158.769 103.15 159.102C103.487 159.435 103.888 159.543 104.354 159.426C104.83 159.307 105.137 159.02 105.276 158.568C105.405 158.117 105.385 157.556 105.216 156.883C105.049 156.221 104.801 155.717 104.472 155.371C104.136 155.038 103.729 154.931 103.253 155.051Z"
              fill="white"/>
        <path d="M92.3588 155.215L92.7979 161.295L93.8511 161.219L93.9767 162.958L92.9293 163.114L92.9604 163.545C93.0011 164.109 92.9422 164.626 92.7837 165.098C92.6253 165.569 92.3432 165.958 91.9377 166.266C91.5321 166.573 90.9729 166.752 90.2601 166.804C89.9303 166.828 89.6247 166.818 89.3435 166.774C89.0623 166.73 88.8343 166.682 88.6594 166.631L88.9659 164.876C89.108 164.919 89.249 164.947 89.3889 164.958C89.5295 164.98 89.6636 164.986 89.7913 164.977C90.0785 164.956 90.2954 164.85 90.4419 164.657C90.5892 164.475 90.6483 164.182 90.6191 163.778L90.5845 163.299L89.1642 163.402L89.0317 161.567L90.452 161.464L90.0129 155.384L92.3588 155.215Z"
              fill="white"/>
        <path d="M79.0591 154.993C80.0367 155.079 80.713 155.423 81.0882 156.024C81.4527 156.624 81.5946 157.38 81.5138 158.294L81.2303 161.498L82.3141 161.593L82.1604 163.331L80.9407 163.319L80.4836 165.399L78.5392 165.227L78.7253 163.123L76.8287 162.955L76.9909 161.123L78.8875 161.29L79.1681 158.119C79.2076 157.672 79.1459 157.34 78.9832 157.123C78.8088 156.914 78.5676 156.797 78.2595 156.769C78.132 156.758 78.0031 156.763 77.8727 156.783C77.7318 156.803 77.6063 156.829 77.4963 156.862L77.2806 155.125C77.4881 155.079 77.7435 155.037 78.0466 155C78.3391 154.961 78.6766 154.959 79.0591 154.993Z"
              fill="white"/>
        <path d="M70.5586 153.941L67.4972 164.731L65.2345 164.089L65.9857 161.442L66.4821 160.103C66.122 160.278 65.7215 160.419 65.2807 160.527C64.8267 160.642 64.3432 160.627 63.8301 160.481C62.9989 160.245 62.4772 159.798 62.265 159.139C62.0396 158.487 62.0623 157.684 62.3331 156.73L63.6781 151.989L65.9408 152.631L64.6787 157.08C64.5215 157.634 64.4908 158.035 64.5865 158.284C64.6719 158.53 64.8788 158.7 65.2072 158.793C65.4945 158.874 65.7597 158.878 66.0028 158.802C66.2429 158.738 66.5197 158.622 66.8329 158.456L68.2959 153.299L70.5586 153.941Z"
              fill="white"/>
        <path d="M53.6749 147.461C54.3472 147.809 54.877 148.27 55.2644 148.844C55.6518 149.418 55.8593 150.06 55.8868 150.771C55.9143 151.482 55.7267 152.226 55.3238 153.003C54.9259 153.77 54.4283 154.347 53.8309 154.734C53.2241 155.116 52.5889 155.321 51.9253 155.349C51.2568 155.387 50.6433 155.261 50.0847 154.971C49.4124 154.622 48.9371 154.183 48.6588 153.654C48.3661 153.13 48.2435 152.556 48.291 151.931C48.3241 151.312 48.5077 150.68 48.8418 150.036C48.9351 149.856 49.0379 149.681 49.1502 149.511C49.2575 149.351 49.3428 149.233 49.4059 149.157L53.624 151.346C53.7946 150.785 53.778 150.296 53.5744 149.878C53.3658 149.469 53.0295 149.145 52.5656 148.904C52.0638 148.643 51.4762 148.537 50.8028 148.584L50.7627 146.959C51.2502 146.899 51.7533 146.914 52.272 147.003C52.7907 147.092 53.2583 147.244 53.6749 147.461ZM52.9234 152.731L50.3812 151.412C50.1798 151.8 50.1099 152.166 50.1716 152.511C50.2188 152.86 50.4508 153.142 50.8674 153.358C51.1893 153.525 51.537 153.561 51.9105 153.467C52.2792 153.382 52.6168 153.136 52.9234 152.731Z"
              fill="white"/>
        <path d="M43.9277 141.703L40.3204 149.045L38.5362 147.537L40.3251 144.231C40.5309 143.888 40.7374 143.553 40.9446 143.225C41.1517 142.897 41.3616 142.558 41.5744 142.207L41.5255 142.166C41.2069 142.427 40.8957 142.688 40.5921 142.948C40.2803 143.201 39.9672 143.44 39.6529 143.663L36.6054 145.905L35.0534 144.594L36.7445 141.205C36.926 140.841 37.1121 140.489 37.3029 140.147C37.4856 139.799 37.6793 139.446 37.8839 139.088L37.835 139.047C37.5163 139.308 37.2168 139.572 36.9363 139.838C36.6477 140.096 36.3475 140.352 36.0357 140.606L33.086 142.931L31.424 141.526L38.0009 136.694L40.1028 138.47L38.6077 141.355C38.4238 141.688 38.2398 142.022 38.0559 142.355C37.8638 142.681 37.6585 143.032 37.4401 143.406L37.489 143.447C37.8215 143.169 38.1326 142.909 38.4225 142.665C38.7042 142.414 38.9941 142.17 39.2921 141.933L41.8747 139.968L43.9277 141.703Z"
              fill="white"/>
        <path d="M30.2036 127.57C30.6596 128.175 30.9386 128.82 31.0406 129.504C31.1426 130.189 31.0526 130.858 30.7705 131.511C30.4885 132.165 29.9982 132.755 29.2998 133.282C28.61 133.802 27.9121 134.108 27.2062 134.199C26.4939 134.282 25.8323 134.193 25.2215 133.932C24.6022 133.678 24.1031 133.299 23.7242 132.797C23.2682 132.192 23.0288 131.591 23.006 130.994C22.9682 130.394 23.1054 129.823 23.4176 129.281C23.7149 128.736 24.1531 128.245 24.7322 127.808C24.894 127.686 25.0623 127.573 25.2369 127.468C25.4031 127.369 25.5309 127.3 25.6204 127.259L28.4813 131.053C28.877 130.621 29.0732 130.173 29.0699 129.708C29.0581 129.249 28.8948 128.811 28.5801 128.394C28.2398 127.942 27.7557 127.593 27.1278 127.345L27.7928 125.861C28.2583 126.018 28.7058 126.248 29.1354 126.552C29.565 126.856 29.9211 127.196 30.2036 127.57ZM27.2518 132L25.5275 129.714C25.1783 129.977 24.9572 130.277 24.8642 130.615C24.7563 130.95 24.8436 131.305 25.1261 131.679C25.3445 131.969 25.6425 132.152 26.0203 132.228C26.3896 132.31 26.8001 132.234 27.2518 132Z"
              fill="white"/>
        <path d="M23.1538 115.998C23.4838 116.68 23.6325 117.366 23.5998 118.058C23.5671 118.749 23.3491 119.388 22.9456 119.974C22.5422 120.561 21.9468 121.044 21.1596 121.426C20.3819 121.802 19.638 121.967 18.9277 121.919C18.2129 121.863 17.5811 121.647 17.0325 121.273C16.4743 120.903 16.0581 120.435 15.7838 119.868C15.4538 119.187 15.3355 118.551 15.4289 117.96C15.5081 117.365 15.7534 116.832 16.1649 116.36C16.5622 115.883 17.0873 115.487 17.7401 115.17C17.9225 115.082 18.1096 115.003 18.3013 114.934C18.4834 114.87 18.6223 114.826 18.718 114.804L20.7888 119.081C21.2607 118.734 21.5402 118.332 21.6271 117.875C21.7044 117.423 21.6292 116.961 21.4015 116.491C21.1551 115.982 20.748 115.545 20.1802 115.18L21.1203 113.854C21.5465 114.098 21.9409 114.411 22.3033 114.792C22.6658 115.174 22.9493 115.576 23.1538 115.998ZM19.3988 119.771L18.1508 117.194C17.7572 117.384 17.482 117.636 17.3254 117.949C17.1545 118.257 17.1713 118.622 17.3758 119.044C17.5338 119.371 17.7908 119.608 18.1467 119.755C18.4931 119.908 18.9104 119.913 19.3988 119.771Z"
              fill="white"/>
        <path d="M19.195 106.763L8.34363 109.6L7.76494 107.386L13.9878 105.76L13.9716 105.698L10.2868 104.065L9.63928 101.588L13.5013 103.456L17.2646 99.3794L17.9081 101.841L15.3737 104.355L16.7277 105.043L18.6163 104.55L19.195 106.763Z"
              fill="white"/>
    </g>

    <g id="group_small">
        <path d="M33.8867 72.7941L34.2427 72.1395L32.6216 71.7469L32.6271 72.489C32.6359 72.8945 32.643 73.3242 32.6482 73.7782C32.6458 74.2304 32.6471 74.6669 32.6521 75.0879L32.6988 75.0992C32.89 74.7175 33.0879 74.3251 33.2925 73.9219C33.4875 73.5246 33.6856 73.1487 33.8867 72.7941ZM37.5712 69.6119L33.3504 76.6399L31.2861 76.14L30.7484 67.9596L32.5678 68.4002L32.5965 70.3209L34.9174 70.883L35.8217 69.1882L37.5712 69.6119Z" fill="white"/>
        <path d="M26.02 65.5117L22.6563 70.4221L21.4683 69.6083L21.9593 68.6792L21.9197 68.6521C21.5155 68.86 21.1337 68.9573 20.7744 68.9439C20.4105 68.9371 20.1032 68.8478 19.8524 68.676C19.7138 68.5811 19.6051 68.492 19.5263 68.4089C19.4429 68.3324 19.3795 68.2551 19.3361 68.1769L20.435 67.0823C20.5027 67.1675 20.575 67.2461 20.6517 67.3181C20.7219 67.3855 20.8098 67.4554 20.9154 67.5277C21.1002 67.6543 21.3423 67.7184 21.6419 67.72C21.9303 67.7236 22.2535 67.6056 22.6116 67.366L24.5647 64.5148L26.02 65.5117Z" fill="white"/>
        <path d="M17.5531 57.4383C17.9927 58.0285 18.1381 58.5786 17.9892 59.0885C17.8356 59.592 17.4829 60.0492 16.9311 60.4602L14.9967 61.9011L15.4842 62.5555L14.4352 63.3368L13.8327 62.6484L12.4405 63.431L11.566 62.2569L12.8363 61.3107L11.9833 60.1655L13.09 59.3412L13.943 60.4864L15.8581 59.0599C16.1276 58.8592 16.2826 58.6589 16.3233 58.459C16.3528 58.2575 16.2982 58.0637 16.1596 57.8777C16.1023 57.8007 16.0353 57.7309 15.9587 57.6682C15.8773 57.5991 15.7999 57.5421 15.7265 57.497L16.5913 56.5087C16.7206 56.6019 16.8714 56.724 17.0437 56.875C17.2113 57.0195 17.381 57.2073 17.5531 57.4383Z" fill="white"/>
        <path d="M13.5467 50.4198L8.08426 53.213L7.68876 51.5063L10.2475 50.3221C10.525 50.2085 10.7995 50.0997 11.0711 49.9957C11.3426 49.8918 11.621 49.7821 11.9064 49.6667L11.8955 49.6199C11.5867 49.634 11.2827 49.6511 10.9835 49.6711C10.6825 49.6834 10.3875 49.6861 10.0985 49.6791L7.26075 49.6592L6.91672 48.1745L9.45378 46.8968C9.72589 46.7599 9.9959 46.6316 10.2638 46.512C10.5299 46.3847 10.8048 46.2594 11.0883 46.1362L11.0774 46.0895C10.7686 46.1035 10.4704 46.1275 10.1826 46.1613C9.89297 46.1874 9.59767 46.2065 9.29667 46.2188L6.48059 46.2924L6.11218 44.7025L12.2329 44.7501L12.6988 46.7608L10.5061 47.8232C10.2459 47.941 9.9858 48.0587 9.72567 48.1765C9.46373 48.2865 9.18322 48.4048 8.88412 48.5316L8.89495 48.5784C9.21934 48.5607 9.52333 48.5437 9.80694 48.5272C10.0887 48.503 10.3723 48.4865 10.6578 48.4779L13.0916 48.4559L13.5467 50.4198Z" fill="white"/>
        <path d="M12.8612 34.7448C12.7523 35.2369 12.5323 35.6757 12.2012 36.0613C11.8639 36.4373 11.4394 36.708 10.9276 36.8733C10.408 37.0369 9.82793 37.0478 9.18743 36.906C8.53911 36.7626 8.01782 36.5079 7.62356 36.1421C7.22929 35.7762 6.96253 35.3526 6.82328 34.8711C6.67794 34.3801 6.65972 33.8886 6.76863 33.3965C6.87753 32.9044 7.10059 32.4703 7.4378 32.0943C7.76721 31.7166 8.18782 31.445 8.69963 31.2797C9.21144 31.1144 9.7915 31.1035 10.4398 31.247C11.0803 31.3887 11.6016 31.6434 12.0037 32.0109C12.398 32.3768 12.6686 32.8013 12.8157 33.2845C12.9549 33.7659 12.9701 34.2527 12.8612 34.7448ZM11.4669 34.4362C11.5447 34.0847 11.4551 33.7863 11.198 33.541C10.9332 33.2939 10.5508 33.1151 10.0509 33.0044C9.54316 32.8921 9.12102 32.8929 8.78444 33.0068C8.44786 33.1208 8.24068 33.3535 8.16289 33.705C8.08337 34.0643 8.17215 34.3667 8.42921 34.612C8.68799 34.8495 9.07125 35.0245 9.57896 35.1368C10.0789 35.2475 10.5001 35.2506 10.8428 35.1461C11.1794 35.0322 11.3874 34.7955 11.4669 34.4362Z" fill="white"/>
        <path d="M15.8549 26.4112L10.8789 23.1454L11.669 21.9415L12.6076 22.414L12.634 22.3739C12.4181 21.9738 12.3133 21.594 12.3195 21.2345C12.3191 20.8707 12.4023 20.5616 12.5691 20.3075C12.6613 20.167 12.7482 20.0566 12.8297 19.9761C12.9045 19.8912 12.9806 19.8264 13.0579 19.7814L14.174 20.8584C14.0902 20.9278 14.0131 21.0016 13.9426 21.0797C13.8766 21.1512 13.8084 21.2405 13.7382 21.3475C13.6153 21.5347 13.556 21.7781 13.5604 22.0776C13.5625 22.3661 13.6868 22.6869 13.9335 23.0402L16.8228 24.9364L15.8549 26.4112Z" fill="white"/>
        <path d="M21.7768 19.0484L16.8413 12.2365L18.2309 11.2297L21.0613 15.1361L21.1001 15.1079L21.2388 12.0882L22.7936 10.9617L22.539 14.1691L26.4121 15.6901L24.867 16.8095L22.4198 15.7226L22.3075 16.8561L23.1664 18.0416L21.7768 19.0484Z" fill="white"/>
        <path d="M34.1572 12.917C33.6666 13.0324 33.1758 13.0246 32.6847 12.8935C32.1996 12.7529 31.7716 12.4878 31.4006 12.0984C31.0277 11.7012 30.7662 11.1833 30.616 10.5448C30.464 9.89841 30.4673 9.31825 30.6258 8.8043C30.7844 8.29035 31.0503 7.8662 31.4237 7.53183C31.803 7.18785 32.238 6.95816 32.7286 6.84277C33.2192 6.72738 33.707 6.74002 34.1921 6.8807C34.6754 7.01358 35.1025 7.27473 35.4735 7.66413C35.8445 8.05353 36.1061 8.57141 36.2581 9.21777C36.4083 9.85635 36.405 10.4365 36.2483 10.9582C36.0898 11.4722 35.8247 11.9002 35.4532 12.2424C35.0798 12.5768 34.6478 12.8016 34.1572 12.917ZM33.8303 11.527C34.1807 11.4445 34.4107 11.2343 34.5202 10.8962C34.6279 10.5504 34.6231 10.1283 34.5059 9.62988C34.3868 9.1237 34.203 8.7437 33.9542 8.4899C33.7055 8.23611 33.406 8.15042 33.0555 8.23284C32.6973 8.31709 32.4634 8.52825 32.3539 8.8663C32.2522 9.20252 32.2609 9.62372 32.3799 10.1299C32.4971 10.6283 32.6771 11.0092 32.9199 11.2726C33.1686 11.5264 33.4721 11.6112 33.8303 11.527Z" fill="white"/>
        <path d="M43.2618 12.0378L43.8635 7.50553L43.0784 7.40129L43.2506 6.10467L44.0436 6.14943L44.0862 5.82825C44.142 5.40793 44.2639 5.03675 44.452 4.7147C44.64 4.39264 44.9063 4.14958 45.2509 3.98551C45.5955 3.82143 46.0334 3.77467 46.5648 3.84522C46.8106 3.87786 47.0335 3.93166 47.2334 4.00662C47.4332 4.08157 47.5934 4.15127 47.714 4.2157L47.2223 5.45778C47.1244 5.40444 47.025 5.363 46.924 5.33345C46.8241 5.29597 46.7265 5.27091 46.6314 5.25827C46.4173 5.22985 46.2418 5.27514 46.1049 5.39416C45.9691 5.50526 45.8812 5.71148 45.8412 6.01284L45.7938 6.3697L46.8525 6.51027L46.6709 7.87827L45.6122 7.7377L45.0104 12.2699L43.2618 12.0378Z" fill="white"/>
        <path d="M54.1651 15.3776C53.5062 15.0496 53.1281 14.6244 53.0306 14.1022C52.9403 13.5836 53.0485 13.0164 53.3552 12.4005L54.4303 10.2414L53.6998 9.87765L54.2829 8.70678L55.1314 9.04884L56.02 7.72183L57.3305 8.3744L56.6245 9.79233L57.9028 10.4288L57.2877 11.6642L56.0094 11.0277L54.9449 13.1653C54.7952 13.4661 54.7473 13.7148 54.8013 13.9115C54.866 14.1046 55.0022 14.2528 55.2099 14.3562C55.2958 14.399 55.3871 14.4311 55.4837 14.4524C55.5875 14.4773 55.6824 14.4932 55.7682 14.5002L55.443 15.7726C55.2855 15.7479 55.0958 15.707 54.8739 15.6501C54.6592 15.5968 54.4229 15.506 54.1651 15.3776Z" fill="white"/>
        <path d="M60.1899 19.2347L66.3689 13.5267L67.5659 14.8224L66.0497 16.2229L65.2082 16.8859C65.5072 16.9148 65.8187 16.9809 66.143 17.0843C66.4786 17.1882 66.782 17.387 67.0535 17.6809C67.4932 18.1568 67.6521 18.6472 67.5302 19.1519C67.4196 19.657 67.091 20.162 66.5445 20.6668L63.8296 23.1748L62.6327 21.879L65.1801 19.5258C65.4974 19.2327 65.6741 18.9877 65.7102 18.791C65.7517 18.6002 65.6857 18.4108 65.5119 18.2227C65.3599 18.0582 65.1915 17.9524 65.0065 17.9055C64.8274 17.8531 64.6052 17.8188 64.3397 17.8026L61.3868 20.5304L60.1899 19.2347Z" fill="white"/>
        <path d="M67.783 30.9029C67.5883 30.3693 67.5294 29.8458 67.6061 29.3324C67.6828 28.819 67.8938 28.3588 68.2393 27.9518C68.5847 27.5448 69.0655 27.2289 69.6818 27.004C70.2906 26.782 70.8581 26.7154 71.3845 26.8044C71.9136 26.9009 72.3687 27.1096 72.7497 27.4305C73.1383 27.7486 73.4134 28.1293 73.5752 28.5727C73.7698 29.1064 73.81 29.5899 73.6956 30.0233C73.5915 30.4615 73.368 30.8411 73.0252 31.162C72.6927 31.4877 72.2709 31.7438 71.7599 31.9302C71.6171 31.9823 71.4715 32.0269 71.3233 32.0639C71.1825 32.0982 71.0756 32.1202 71.0024 32.1299L69.781 28.7817C69.4026 29.0049 69.1637 29.2837 69.0642 29.618C68.9723 29.9496 68.9935 30.2995 69.1278 30.6678C69.2732 31.0661 69.5438 31.4229 69.9399 31.7383L69.1381 32.6567C68.8385 32.4424 68.5679 32.1792 68.3263 31.8671C68.0847 31.555 67.9036 31.2336 67.783 30.9029ZM70.8704 28.3715L71.6066 30.3894C71.9147 30.277 72.1391 30.11 72.2796 29.8884C72.4305 29.6716 72.4456 29.3978 72.3249 29.0672C72.2317 28.8116 72.0579 28.6153 71.8035 28.4782C71.5566 28.3383 71.2456 28.3028 70.8704 28.3715Z" fill="white"/>
        <path d="M69.8579 40.3202L75.9249 39.4077L75.7575 41.1517L72.955 41.4613C72.6558 41.4808 72.3609 41.4967 72.0704 41.509C71.7799 41.5213 71.4811 41.5368 71.1739 41.5556L71.1693 41.6033C71.4666 41.6881 71.7602 41.7686 72.0503 41.8446C72.3396 41.9287 72.6201 42.0199 72.892 42.1183L75.5763 43.039L75.4306 44.5561L72.6191 44.9612C72.3175 45.0046 72.0208 45.0404 71.7287 45.0687C71.4359 45.1048 71.1355 45.1363 70.8276 45.163L70.823 45.2108C71.1203 45.2956 71.4107 45.3676 71.6943 45.427C71.9772 45.4943 72.2633 45.57 72.5526 45.6541L75.246 46.4792L75.0901 48.1037L69.3018 46.1135L69.499 44.059L71.9157 43.7485C72.1998 43.7195 72.4839 43.6905 72.7679 43.6615C73.0512 43.6405 73.3548 43.6174 73.6787 43.5922L73.6833 43.5445C73.3701 43.4581 73.0765 43.3777 72.8023 43.3032C72.5274 43.2366 72.2533 43.1621 71.9799 43.0796L69.6653 42.3269L69.8579 40.3202Z" fill="white"/>
        <path d="M65.4707 55.4935C65.7633 55.0066 66.1333 54.6317 66.5808 54.3686C67.0283 54.1055 67.5188 53.9804 68.0525 53.9932C68.5862 54.0059 69.1342 54.1813 69.6965 54.5192C70.2518 54.8531 70.6604 55.2526 70.9221 55.7179C71.1796 56.1901 71.3034 56.6752 71.2934 57.1732C71.2903 57.6754 71.1671 58.1287 70.924 58.5333C70.6314 59.0201 70.2806 59.3553 69.8716 59.5388C69.4653 59.7333 69.0296 59.7981 68.5646 59.7333C68.1023 59.6794 67.638 59.5124 67.1717 59.2321C67.0415 59.1538 66.9153 59.0686 66.7933 58.9766C66.6781 58.8887 66.5938 58.8194 66.5403 58.7686L68.3764 55.7139C67.9649 55.5599 67.5979 55.5493 67.2754 55.6822C66.9597 55.8191 66.7009 56.0556 66.4989 56.3916C66.2805 56.755 66.1732 57.1898 66.1769 57.6961L64.9586 57.6498C64.9369 57.2821 64.9715 56.9062 65.0624 56.5221C65.1532 56.1381 65.2893 55.7952 65.4707 55.4935ZM69.3802 56.3033L68.2736 58.1443C68.5547 58.3133 68.8256 58.3828 69.0863 58.3528C69.3498 58.3338 69.5722 58.1734 69.7535 57.8717C69.8936 57.6386 69.9371 57.38 69.8838 57.096C69.8373 56.8161 69.6695 56.5518 69.3802 56.3033Z" fill="white"/>
        <path d="M57.8912 63.8405C58.3489 63.5042 58.835 63.301 59.3493 63.2309C59.8636 63.1608 60.3645 63.2345 60.852 63.4522C61.3394 63.6698 61.7774 64.043 62.1658 64.5716C62.5494 65.0939 62.7722 65.6201 62.8341 66.1503C62.8896 66.6853 62.8167 67.1806 62.6154 67.6363C62.4188 68.0983 62.1303 68.4691 61.7499 68.7485C61.2922 69.0848 60.8392 69.2587 60.3911 69.2703C59.9413 69.293 59.5143 69.1848 59.1103 68.9456C58.7045 68.7176 58.3406 68.3843 58.0185 67.9459C57.9285 67.8234 57.845 67.6962 57.7679 67.5642C57.6955 67.4387 57.6445 67.3422 57.6147 67.2747L60.487 65.1646C60.1668 64.8639 59.8322 64.7125 59.4834 64.7107C59.1394 64.7153 58.8094 64.8336 58.4935 65.0657C58.1518 65.3167 57.885 65.6765 57.6931 66.145L56.587 65.6324C56.7088 65.2848 56.8857 64.9514 57.1177 64.632C57.3497 64.3127 57.6075 64.0489 57.8912 63.8405ZM61.1858 66.0956L59.4547 67.3673C59.6489 67.6317 59.872 67.8003 60.1241 67.8732C60.3745 67.9573 60.6415 67.8951 60.9252 67.6867C61.1444 67.5257 61.2842 67.3038 61.3446 67.0212C61.4098 66.7451 61.3568 66.4365 61.1858 66.0956Z" fill="white"/>
        <path d="M50.3014 68.1308L52.2813 76.3065L50.6135 76.7104L49.4781 72.0219L49.4314 72.0332L48.1568 74.7742L46.2907 75.2261L47.7439 72.3554L44.7382 69.478L46.5926 69.0289L48.4439 70.9636L48.9782 69.9576L48.6336 68.5347L50.3014 68.1308Z" fill="white"/>
    </g>

    <g id="star">
        <path d="M17.5 0L22.2266 12.7734L35 17.5L22.2266 22.2266L17.5 35L12.7734 22.2266L0 17.5L12.7734 12.7734L17.5 0Z"
              fill="white"/>
    </g>

</svg>